<svg width="52" height="120" viewBox="0 0 52 120" fill="none" xmlns="http://www.w3.org/2000/svg">
<path d="M50.7409 47.7544C44.7206 19.869 32.1565 12.4436 28.9684 7.19463C27.2356 4.33931 25.4687 0 25.4687 0C25.296 2.47333 24.9897 4.03976 22.9795 5.91949C18.9537 9.68719 1.84559 24.3238 0.408565 56.0098C-0.931608 85.5523 21.087 103.772 24.0134 105.655C26.2488 106.809 28.9867 105.677 30.2955 104.619C40.9069 96.9681 55.4237 76.5686 50.7279 47.7544" fill="#10AA50"/>
<path d="M26.3807 89.9189C25.8284 97.2345 25.4305 101.491 24.0249 105.663C24.0249 105.663 24.9515 112.624 25.5954 120H27.891C28.439 114.805 29.2754 109.648 30.396 104.556C27.4224 103.025 26.4932 96.3358 26.3807 89.9189Z" fill="#B8C4C2"/>
<path d="M30.3943 104.561C27.3894 103.104 26.5204 96.2809 26.3869 89.9189C27.1272 79.43 27.3413 68.9075 27.0282 58.395C26.8711 52.8795 27.1067 7.30163 25.7351 0.62915C26.29 1.93452 27.6302 5.00144 28.9704 7.19171C32.1716 12.4434 44.7252 19.8689 50.7403 47.757C55.4283 76.497 40.9979 96.8607 30.3943 104.561Z" fill="#12924F"/>
</svg>
